<svg width="480" height="236" viewBox="0 0 480 236" fill="none" xmlns="http://www.w3.org/2000/svg">
<path d="M9 194.5V12C9 10.8954 9.89543 10 11 10H378.5" stroke="#EDEDED" stroke-width="4" stroke-linecap="round"/>
<path d="M470.5 41L470.5 223.5C470.5 224.605 469.605 225.5 468.5 225.5L101 225.5" stroke="#EDEDED" stroke-width="4" stroke-linecap="round"/>
<path d="M60.475 144V91.5H75.7L87.175 138.6H88.375L99.85 91.5H115.075V144H107.2V97.2H106L94.6 144H80.95L69.55 97.2H68.35V144H60.475ZM126.252 144V107.025H133.977V144H126.252ZM130.152 102C128.652 102 127.377 101.525 126.327 100.575C125.327 99.575 124.827 98.3 124.827 96.75C124.827 95.2 125.327 93.95 126.327 93C127.377 92 128.652 91.5 130.152 91.5C131.702 91.5 132.977 92 133.977 93C134.977 93.95 135.477 95.2 135.477 96.75C135.477 98.3 134.977 99.575 133.977 100.575C132.977 101.525 131.702 102 130.152 102ZM145.441 144V91.5H153.166V144H145.441ZM176.106 145.05C173.456 145.05 171.081 144.6 168.981 143.7C166.931 142.8 165.281 141.475 164.031 139.725C162.831 137.975 162.231 135.85 162.231 133.35C162.231 130.8 162.831 128.7 164.031 127.05C165.281 125.35 166.956 124.075 169.056 123.225C171.206 122.375 173.631 121.95 176.331 121.95H187.581V119.55C187.581 117.4 186.931 115.675 185.631 114.375C184.331 113.075 182.331 112.425 179.631 112.425C176.981 112.425 174.956 113.05 173.556 114.3C172.156 115.55 171.231 117.175 170.781 119.175L163.581 116.85C164.181 114.85 165.131 113.05 166.431 111.45C167.781 109.8 169.556 108.475 171.756 107.475C173.956 106.475 176.606 105.975 179.706 105.975C184.506 105.975 188.281 107.2 191.031 109.65C193.781 112.1 195.156 115.575 195.156 120.075V135.3C195.156 136.8 195.856 137.55 197.256 137.55H200.406V144H194.631C192.881 144 191.456 143.55 190.356 142.65C189.256 141.75 188.706 140.525 188.706 138.975V138.75H187.581C187.181 139.5 186.581 140.375 185.781 141.375C184.981 142.375 183.806 143.25 182.256 144C180.706 144.7 178.656 145.05 176.106 145.05ZM177.231 138.675C180.331 138.675 182.831 137.8 184.731 136.05C186.631 134.25 187.581 131.8 187.581 128.7V127.95H176.781C174.731 127.95 173.081 128.4 171.831 129.3C170.581 130.15 169.956 131.425 169.956 133.125C169.956 134.825 170.606 136.175 171.906 137.175C173.206 138.175 174.981 138.675 177.231 138.675ZM207.917 144V107.025H215.492V112.575H216.692C217.392 111.075 218.642 109.675 220.442 108.375C222.242 107.075 224.917 106.425 228.467 106.425C231.267 106.425 233.742 107.05 235.892 108.3C238.092 109.55 239.817 111.325 241.067 113.625C242.317 115.875 242.942 118.6 242.942 121.8V144H235.217V122.4C235.217 119.2 234.417 116.85 232.817 115.35C231.217 113.8 229.017 113.025 226.217 113.025C223.017 113.025 220.442 114.075 218.492 116.175C216.592 118.275 215.642 121.325 215.642 125.325V144H207.917ZM283.352 144V98.85H267.227V91.5H307.577V98.85H291.452V144H283.352ZM314.338 144V107.025H322.063V144H314.338ZM318.238 102C316.738 102 315.463 101.525 314.413 100.575C313.413 99.575 312.913 98.3 312.913 96.75C312.913 95.2 313.413 93.95 314.413 93C315.463 92 316.738 91.5 318.238 91.5C319.788 91.5 321.063 92 322.063 93C323.063 93.95 323.563 95.2 323.563 96.75C323.563 98.3 323.063 99.575 322.063 100.575C321.063 101.525 319.788 102 318.238 102ZM333.527 144V91.5H341.252V144H333.527ZM352.717 144V107.025H360.442V144H352.717ZM356.617 102C355.117 102 353.842 101.525 352.792 100.575C351.792 99.575 351.292 98.3 351.292 96.75C351.292 95.2 351.792 93.95 352.792 93C353.842 92 355.117 91.5 356.617 91.5C358.167 91.5 359.442 92 360.442 93C361.442 93.95 361.942 95.2 361.942 96.75C361.942 98.3 361.442 99.575 360.442 100.575C359.442 101.525 358.167 102 356.617 102ZM364.856 159V152.325H369.881C371.331 152.325 372.056 151.575 372.056 150.075V107.025H379.781V151.575C379.781 153.825 379.131 155.625 377.831 156.975C376.531 158.325 374.706 159 372.356 159H364.856ZM375.956 102C374.456 102 373.181 101.525 372.131 100.575C371.131 99.575 370.631 98.3 370.631 96.75C370.631 95.2 371.131 93.95 372.131 93C373.181 92 374.456 91.5 375.956 91.5C377.506 91.5 378.781 92 379.781 93C380.781 93.95 381.281 95.2 381.281 96.75C381.281 98.3 380.781 99.575 379.781 100.575C378.781 101.525 377.506 102 375.956 102ZM402.717 145.05C400.067 145.05 397.692 144.6 395.592 143.7C393.542 142.8 391.892 141.475 390.642 139.725C389.442 137.975 388.842 135.85 388.842 133.35C388.842 130.8 389.442 128.7 390.642 127.05C391.892 125.35 393.567 124.075 395.667 123.225C397.817 122.375 400.242 121.95 402.942 121.95H414.192V119.55C414.192 117.4 413.542 115.675 412.242 114.375C410.942 113.075 408.942 112.425 406.242 112.425C403.592 112.425 401.567 113.05 400.167 114.3C398.767 115.55 397.842 117.175 397.392 119.175L390.192 116.85C390.792 114.85 391.742 113.05 393.042 111.45C394.392 109.8 396.167 108.475 398.367 107.475C400.567 106.475 403.217 105.975 406.317 105.975C411.117 105.975 414.892 107.2 417.642 109.65C420.392 112.1 421.767 115.575 421.767 120.075V135.3C421.767 136.8 422.467 137.55 423.867 137.55H427.017V144H421.242C419.492 144 418.067 143.55 416.967 142.65C415.867 141.75 415.317 140.525 415.317 138.975V138.75H414.192C413.792 139.5 413.192 140.375 412.392 141.375C411.592 142.375 410.417 143.25 408.867 144C407.317 144.7 405.267 145.05 402.717 145.05ZM403.842 138.675C406.942 138.675 409.442 137.8 411.342 136.05C413.242 134.25 414.192 131.8 414.192 128.7V127.95H403.392C401.342 127.95 399.692 128.4 398.442 129.3C397.192 130.15 396.567 131.425 396.567 133.125C396.567 134.825 397.217 136.175 398.517 137.175C399.817 138.175 401.592 138.675 403.842 138.675Z" fill="#EDEDED"/>
</svg>
