<svg width="122" height="41" viewBox="0 0 122 41" fill="none" xmlns="http://www.w3.org/2000/svg">
<g id="REVEL partner logo">
<g id="REVEL">
<path d="M23.1452 26.2936L23.9818 27.6879H18.2652L17.9863 27.2696L12.0606 17.5445C11.9212 17.5794 11.7818 17.6142 11.6423 17.6491C11.5726 17.6491 11.5029 17.6491 11.4681 17.6491C11.4332 17.6839 11.3983 17.6839 11.3635 17.6839C11.2938 17.6839 11.2241 17.6839 11.1543 17.7188C11.1195 17.7188 11.0846 17.7188 11.0498 17.7188C10.9452 17.7188 10.8755 17.7536 10.8058 17.7536C10.7012 17.7536 10.6315 17.7536 10.5618 17.7536L10.5269 17.7885H10.4572C10.3875 17.7885 10.3178 17.7885 10.2481 17.7885C10.2481 17.7885 10.2132 17.7885 10.1783 17.7885C10.1086 17.7885 10.0738 17.7885 10.0041 17.7885H9.86463C9.79492 17.7885 9.72521 17.8234 9.65549 17.8234H6.62292V27.6879H1.74292V12.9085H9.65549C10.5269 12.9085 11.3983 12.7342 12.2001 12.4205C12.2349 12.3856 12.2349 12.3856 12.2698 12.3856C13.0366 12.0371 13.6989 11.5839 14.2915 10.9914C14.7446 10.5731 15.1281 10.0502 15.4418 9.49251H1.74292V4.6125H21.0886L21.1235 5.48393C21.1583 5.72793 21.1583 6.00679 21.1583 6.28565C21.1583 7.12222 21.0886 7.95879 20.8795 8.79536C20.4263 10.9565 19.3109 12.9085 17.7423 14.4771C17.5681 14.6514 17.4286 14.7559 17.2892 14.8954C17.2543 14.9302 17.1846 14.9999 17.1498 15.0348C17.1498 15.0348 17.1149 15.0348 17.1149 15.0696C17.0452 15.1045 16.9755 15.1742 16.9406 15.2091C16.8709 15.2439 16.8361 15.2788 16.7663 15.3136C16.7663 15.3485 16.7315 15.3834 16.6966 15.3834L16.6618 15.4182C16.6269 15.4531 16.5921 15.4879 16.5572 15.4879L23.1452 26.2936Z" fill="white"/>
<path d="M25.9795 4.68222H46.5452V9.56222H25.9795V4.68222ZM30.8595 17.8582V22.8079H46.5452V27.6879H25.9795V12.9434L30.8595 12.9782H44.4887V17.8582H30.8595Z" fill="white"/>
<path d="M59.773 13.9891L56.7056 19.4965L49.1764 5.86736L48.5141 4.68222H54.6141L59.773 13.9891ZM68.8358 4.68222H74.9707L74.3084 5.86736L62.4221 27.6879H61.1324L58.6576 23.0171L61.725 17.5096L62.3176 16.4639L63.3284 14.6514L68.6616 4.99593L68.8358 4.68222Z" fill="white"/>
<path d="M77.7206 4.68222H98.2863V9.56222H77.7206V4.68222ZM82.6006 17.8582V22.8079H98.2863V27.6879H77.7206V12.9434L82.6006 12.9782H96.2297V17.8582H82.6006Z" fill="white"/>
<path d="M106.667 22.8079H120.087V27.6879H101.787V4.50793H106.667V22.8079Z" fill="white"/>
</g>
<g id="Group 1321314240">
<g id="Partner">
<path d="M62.2634 33.0587H65.3488C65.7982 33.0587 66.1876 33.1073 66.5171 33.2047C66.8466 33.302 67.1199 33.4431 67.3371 33.6278C67.5543 33.81 67.7153 34.0335 67.8201 34.2981C67.9275 34.5627 67.9812 34.861 67.9812 35.193C67.9812 35.505 67.9287 35.7933 67.8239 36.0579C67.719 36.3225 67.558 36.5522 67.3409 36.7469C67.1262 36.9391 66.8541 37.0901 66.5246 37.2C66.1951 37.3073 65.8056 37.361 65.3563 37.361L63.4504 37.3572V38.9112H62.2634V33.0587ZM65.3788 36.3313C65.6034 36.3313 65.7994 36.3051 65.9667 36.2526C66.1364 36.1977 66.2774 36.1216 66.3898 36.0242C66.5046 35.9244 66.5895 35.8046 66.6444 35.6648C66.7018 35.5225 66.7305 35.3652 66.7305 35.193C66.7305 34.846 66.6169 34.5764 66.3898 34.3842C66.1651 34.1895 65.8281 34.0921 65.3788 34.0921H63.4504V36.3313H65.3788Z" fill="white"/>
<path d="M73.1934 33.0587H74.4515L77.2823 38.9112H76.0354L75.5674 37.9264H72.1487L71.6956 38.9112H70.445L73.1934 33.0587ZM75.0993 36.9491L73.8337 34.2906L72.6018 36.9491H75.0993Z" fill="white"/>
<path d="M80.1093 33.0587H83.0861C83.5355 33.0587 83.9249 33.1061 84.2544 33.2009C84.5839 33.2933 84.8573 33.4281 85.0744 33.6053C85.2916 33.7826 85.4526 33.9985 85.5575 34.2531C85.6648 34.5077 85.7185 34.7961 85.7185 35.1181C85.7185 35.3353 85.6923 35.5425 85.6398 35.7397C85.5874 35.9344 85.5063 36.1141 85.3965 36.2789C85.2891 36.4436 85.1531 36.5909 84.9883 36.7207C84.8236 36.848 84.6301 36.9541 84.4079 37.039L85.681 38.9112H84.2282L83.1273 37.2487H83.0936L81.2963 37.2449V38.9112H80.1093V33.0587ZM83.1161 36.2189C83.3408 36.2189 83.5367 36.1927 83.704 36.1403C83.8737 36.0879 84.0148 36.0142 84.1271 35.9194C84.2419 35.8245 84.3268 35.7097 84.3817 35.5749C84.4391 35.4376 84.4678 35.2853 84.4678 35.1181C84.4678 34.7911 84.3555 34.5389 84.1308 34.3617C83.9062 34.182 83.5679 34.0921 83.1161 34.0921H81.2963V36.2189H83.1161Z" fill="white"/>
<path d="M90.8071 34.0996H88.6466V33.0587H94.1546V34.0996H91.9941V38.9112H90.8071V34.0996Z" fill="white"/>
<path d="M97.3337 33.0587H98.5206L102.168 34.9683V33.0587H103.355V38.9112H102.168V36.2264L98.5206 34.328V38.9112H97.3337V33.0587Z" fill="white"/>
<path d="M106.927 33.0587H111.911V34.0996H108.114V35.2679H111.476V36.2452H108.114V37.874H111.989V38.9112H106.927V33.0587Z" fill="white"/>
<path d="M115.224 33.0587H118.201C118.651 33.0587 119.04 33.1061 119.37 33.2009C119.699 33.2933 119.972 33.4281 120.19 33.6053C120.407 33.7826 120.568 33.9985 120.673 34.2531C120.78 34.5077 120.834 34.7961 120.834 35.1181C120.834 35.3353 120.807 35.5425 120.755 35.7397C120.703 35.9344 120.621 36.1141 120.512 36.2789C120.404 36.4436 120.268 36.5909 120.103 36.7207C119.939 36.848 119.745 36.9541 119.523 37.039L120.796 38.9112H119.343L118.243 37.2487H118.209L116.411 37.2449V38.9112H115.224V33.0587ZM118.231 36.2189C118.456 36.2189 118.652 36.1927 118.819 36.1403C118.989 36.0879 119.13 36.0142 119.242 35.9194C119.357 35.8245 119.442 35.7097 119.497 35.5749C119.554 35.4376 119.583 35.2853 119.583 35.1181C119.583 34.7911 119.471 34.5389 119.246 34.3617C119.021 34.182 118.683 34.0921 118.231 34.0921H116.411V36.2189H118.231Z" fill="white"/>
</g>
<path id="Vector 130" d="M1.47803 36.3527L59.3408 36.1202" stroke="white" stroke-width="1.74286" stroke-linecap="round"/>
</g>
</g>
</svg>
