<svg width="87" height="17" viewBox="0 0 87 17" fill="none" xmlns="http://www.w3.org/2000/svg">
<path d="M15.8846 15.9829L16.4949 17H12.3246L12.1211 16.6949L7.79829 9.60029C7.69657 9.62571 7.59486 9.65114 7.49314 9.67657C7.44229 9.67657 7.39143 9.67657 7.366 9.67657C7.34057 9.702 7.31514 9.702 7.28971 9.702C7.23886 9.702 7.188 9.702 7.13714 9.72743C7.11171 9.72743 7.08629 9.72743 7.06086 9.72743C6.98457 9.72743 6.93371 9.75286 6.88286 9.75286C6.80657 9.75286 6.75571 9.75286 6.70486 9.75286L6.67943 9.77829H6.62857C6.57771 9.77829 6.52686 9.77829 6.476 9.77829C6.476 9.77829 6.45057 9.77829 6.42514 9.77829C6.37429 9.77829 6.34886 9.77829 6.298 9.77829H6.24714H6.22171H6.19629C6.14543 9.77829 6.09457 9.80371 6.04371 9.80371H3.83143V17H0.271429V6.21828H6.04371C6.67943 6.21828 7.31514 6.09114 7.9 5.86229C7.92543 5.83686 7.92543 5.83686 7.95086 5.83686C8.51029 5.58257 8.99343 5.252 9.42572 4.81971C9.75629 4.51457 10.036 4.13314 10.2649 3.72629H7.9H0.271429V0.166284H14.3843L14.4097 0.801999C14.4351 0.979998 14.4351 1.18343 14.4351 1.38686C14.4351 1.99714 14.3843 2.60743 14.2317 3.21771C13.9011 4.79429 13.0874 6.21828 11.9431 7.36257C11.816 7.48971 11.7143 7.566 11.6126 7.66771C11.5871 7.69314 11.5363 7.744 11.5109 7.76943C11.5109 7.76943 11.4854 7.76943 11.4854 7.79486C11.4346 7.82028 11.3837 7.87114 11.3583 7.89657C11.3074 7.922 11.282 7.94743 11.2311 7.97286C11.2311 7.99829 11.2057 8.02371 11.1803 8.02371L11.1549 8.04914C11.1294 8.07457 11.104 8.1 11.0786 8.1L15.8846 15.9829ZM17.9522 0.217142H32.9551V3.77714H17.9522V0.878285V0.217142ZM21.5122 9.82914V13.44H32.9551V17H17.9522V14.1011V13.44V6.24371L21.5122 6.26914H31.4548V9.82914H21.5122ZM38.9686 0.445999L42.6048 7.00657L40.3671 11.0243L34.8746 1.08171L34.3914 0.217142H38.8414L38.9686 0.445999ZM49.2163 0.217142H53.6917L53.2086 1.08171L44.5374 17H43.5966L41.7911 13.5926L44.0288 9.57486L44.4611 8.812L45.1986 7.48971L49.0891 0.445999L49.2163 0.217142ZM55.6978 0.217142H70.7006V3.77714H55.6978V0.878285V0.217142ZM59.2578 9.82914V13.44H70.7006V17H55.6978V14.1011V13.44V6.24371L59.2578 6.26914H69.2003V9.82914H59.2578ZM76.8144 13.44H86.6044V17H73.2544V0.0899993H76.8144V13.44Z" fill="white"/>
</svg>
