<svg width="1594" height="1516" viewBox="0 0 1594 1516" fill="none" xmlns="http://www.w3.org/2000/svg">
<rect x="113" y="57" width="1400" height="1357" fill="white"/>
<path d="M1593.75 758.514V1497.6C1593.75 1514.96 1593.75 1514.98 1570.71 1514.98C1126.02 1514.95 681.31 1514.94 236.58 1514.94C164.065 1514.94 91.5497 1515.1 19.0662 1515.99C3.1777 1516.19 0 1512.34 0 1501.01C0.476656 1352.4 0.222447 1203.78 0.317778 1055.17C0.571994 710.667 0.857977 366.158 1.17575 21.641C1.46195 18.0457 1.46195 14.4406 1.17575 10.8453C-0.190666 2.50204 4.06746 -0.0706641 15.253 0.00146759C74.5489 0.362126 133.845 0.00146759 193.204 0.00146759H1571.76C1594 0.00146759 1594 0.00146752 1594 16.8322L1593.75 758.514Z" fill="black"/>
<path d="M596.61 88.7303C685.541 88.7303 774.473 88.0951 863.023 95.6222C969.836 104.674 1067.44 142.786 1155.39 204.655C1268.8 284.531 1345.51 391.754 1388.35 522.796C1416.79 610.255 1424.33 703.16 1410.36 794.059C1384 974.076 1294.12 1115.66 1145.41 1218.66C1056.99 1279.89 957.799 1315.78 849.493 1321.98C748.27 1327.76 646.634 1327.18 544.998 1327.72C541.091 1318.8 547.253 1315.02 553.573 1311.84C614.968 1281.51 666.771 1238.8 712.38 1188.27C723.464 1176.01 735.597 1168.35 753.383 1169.94C771.17 1171.53 787.527 1163.59 805.122 1164.22C903.582 1161.3 993.086 1133 1072.46 1073.58C1178.7 994.18 1238.31 887.434 1253.5 756.836C1263.04 675.976 1249.84 594.057 1215.38 520.287C1167.52 415.828 1090.88 340.524 987.146 292.376C930.167 265.952 869.63 254.582 807.251 252.517C778.665 251.564 749.509 256.519 721.717 245.562C694.053 220.408 668.168 193.38 638.376 170.417C604.71 144.906 568.425 123.048 530.134 105.214C526.669 103.923 523.339 102.296 520.192 100.354C517.016 98.0042 514.666 95.0505 515.809 90.8264C516.953 86.6024 520.796 87.6504 523.781 87.6504C548.174 88.2856 572.376 86.3483 596.61 88.7303Z" fill="#FEFEFE"/>
<path d="M205.153 1343.86C197.403 1343.86 195.815 1339.44 195.847 1332.55C196.038 1280.72 196.165 1228.92 195.847 1177.09C195.847 1166.32 201.373 1165.56 209.727 1165.21C302.755 1161.36 387.018 1131.86 461.085 1075.58C559.958 1000.47 620.685 901.25 636.757 777.893C656.989 622.681 609.664 489.734 494.816 382.48C416.048 308.955 321.653 270.748 214.268 264.967C200.325 264.205 195.371 260.775 195.656 245.911C196.609 197.826 195.847 149.678 196.26 101.561C196.26 96.4163 191.718 88.0951 202.136 86.4436C232.404 89.3973 262.831 87.9046 293.195 90.1595C349.159 94.3519 401.183 111.598 451.779 133.989C510.601 159.968 563.325 195.794 612.745 236.669C617.192 246.896 627.578 251.279 634.978 258.647C669.439 293.138 700.819 330.044 726.609 371.522C729.382 376.024 732.665 380.191 736.392 383.941C740.743 389.118 740.902 395.724 742.744 401.758C770.726 447.175 792.355 495.228 804.456 547.41C806.203 554.874 810.237 561.924 811.062 569.864C830.345 656.609 832.084 746.333 816.176 833.759C814.793 841.54 812.861 849.214 810.395 856.722C804.043 882.67 798.294 908.618 788.639 933.772C779.337 959.416 767.706 984.155 753.892 1007.68C752.327 1010.98 751.257 1014.49 750.716 1018.1C717.78 1074.6 682.334 1129.26 631.707 1172.07C629.737 1174.58 628.816 1177.72 626.688 1180.1C605.059 1195.25 587.05 1214.72 565.421 1230C509.362 1269.54 449.683 1302.03 383.778 1320.99C362.022 1327.34 340.361 1334.78 317.937 1339.06C288.315 1344.46 258.428 1348.3 228.402 1350.56C220.081 1351.16 210.965 1352.66 205.153 1343.86Z" fill="#FEFEFE"/>
<path d="M196.037 942.252C196.037 923.196 196.768 904.14 195.783 885.084C195.148 872.38 198.229 867.044 212.49 865.424C305.868 854.816 366.659 774.018 352.239 681.215C341.98 614.868 285.541 559.987 218.366 551.412C195.942 548.553 195.942 548.553 195.942 526.004C195.942 487.415 196.196 448.827 195.942 410.206C195.942 400.011 198.737 396.359 209.536 396.994C292.369 401.885 363.419 433.201 420.748 493.132C483.159 558.367 512.094 637.132 506.504 727.204C501.358 809.78 468.2 880.065 407.091 936.599C353.097 986.589 288.812 1012.82 215.761 1019.02C200.929 1020.29 194.64 1017.11 195.815 1000.85C197.085 981.444 196.037 961.816 196.037 942.252Z" fill="#FEFEFE"/>
<path d="M608.108 244.959C510.41 157.968 396.292 107.532 266.738 90.9219C245.235 88.1588 223.352 92.637 202.167 86.3802C254.986 86.2214 307.805 85.8085 360.624 85.9355C431.938 86.1049 503.253 86.4967 574.568 87.1107C581.936 87.1107 589.273 88.1588 596.61 88.6987H522.765C599.564 127.891 669.375 173.911 723.083 241.465C702.295 249.437 680.034 252.839 657.814 251.438C641.076 249.881 624.401 248.135 608.108 244.959Z" fill="#C6C6C6"/>
<path d="M319.493 1330.3C350.746 1322.58 382.031 1315.12 412.172 1303.4C490.369 1272.94 560.974 1230.63 621.479 1172.04C643.553 1169.24 665.723 1170.77 687.828 1170.32C701.009 1170.04 714 1167.15 726.831 1166C749.636 1164.13 772.853 1162.32 795.912 1165.27C798.02 1165.39 800.047 1166.12 801.741 1167.38C803.435 1168.64 804.721 1170.37 805.44 1172.35C786.384 1177.85 766.565 1174.45 747.127 1175.31C742.681 1175.24 738.278 1176.18 734.25 1178.06C730.222 1179.94 726.675 1182.71 723.877 1186.17C676.394 1241.94 621.003 1287.8 554.717 1320.04C551.162 1322.24 547.851 1324.82 544.839 1327.72L499.516 1330.23C496.149 1338.21 488.749 1338.01 482.079 1338.11C433.717 1338.91 385.324 1338.91 336.898 1338.11C330.355 1338.01 322.955 1338.24 319.493 1330.3Z" fill="#C6C6C6"/>
<path d="M319.493 1330.3H499.611L523.305 1332.08C517.798 1337.36 510.977 1341.08 503.55 1342.84C460.15 1357.62 414.985 1366.59 369.231 1369.52C317.016 1372.7 265.118 1365.68 213.029 1368.73C206.963 1369.08 199.658 1370 196.958 1362.09C194.036 1353.67 198.038 1347.89 205.248 1343.86C243.601 1342.03 281.778 1337.5 319.493 1330.3V1330.3Z" fill="#191919"/>
<path d="M483.445 80.0282C478.776 83.9664 474.361 82.823 470.327 82.823C385.228 82.823 300.14 82.823 215.062 82.823C208.932 82.823 201.977 84.4428 197.721 77.8685C192.575 69.8967 197.721 58.0819 207.916 58.1454C299.071 58.5266 390.924 49.6972 480.173 77.2015C481.063 77.6144 481.761 78.6307 483.445 80.0282Z" fill="#1B1B1B"/>
<path d="M805.44 1172.35C750.112 1170.04 694.911 1176.36 639.615 1174.74C633.485 1174.58 626.91 1176.74 621.384 1172.04L627.355 1168.45C655.94 1162.1 685.383 1162.35 714.476 1161.33C730.357 1160.76 740.838 1155.46 750.112 1142.5C770.194 1114.02 788.789 1084.52 805.821 1054.11C814.556 1038.74 813.126 1035.85 796.515 1029.47C789.687 1026.83 785.018 1023.46 790.544 1015.59C794.951 1012.69 800.236 1011.44 805.472 1012.06C823.09 1012.5 840.713 1011.37 858.132 1008.69C909.427 1005.52 954.655 985.382 995.531 956.131C1072.23 901.25 1114.03 825.915 1121.88 731.778C1128.41 655.06 1105.27 578.758 1057.2 518.603C1009.14 458.448 939.834 419.024 863.563 408.46C860.959 408.11 858.291 408.205 855.623 408.11C823.481 402.171 791.624 404.934 759.863 410.937C750.176 412.747 742.14 410.556 735.883 402.743L728.578 387.879C729.54 386.574 730.942 385.662 732.524 385.312C734.107 384.961 735.763 385.196 737.185 385.973C757.417 397.915 777.522 386.259 797.532 385.179C809.919 384.512 806.171 374.095 802.169 367.013C788.384 342.653 774.854 317.975 757.703 295.838C720.352 247.626 731.532 252.549 673.504 252.359C666.548 252.359 656.607 254.518 656.321 242.1L723.02 241.56C747.666 245.816 772.599 244.323 797.373 244.45C904.059 245.085 1000.64 275.893 1084.62 342.049C1192.93 427.357 1253.5 539.343 1262.8 677.309C1271.95 814.545 1227.86 933.836 1132.3 1032.36C1049.72 1117.35 947.699 1162.57 829.42 1171.15C821.321 1171.72 813.508 1171.97 805.44 1172.35Z" fill="black"/>
<path d="M802.264 857.611C821.816 777.787 824.767 694.799 810.935 613.789C808.426 598.703 805.123 583.743 802.201 568.689C798.612 545.695 800.994 542.424 823.227 542.042C845.46 541.661 867.279 543.249 884.399 560.273C897.548 584.792 898.469 612.105 900.724 638.784C906.092 704.114 905.298 769.477 894.944 834.426C893.673 842.239 889.131 849.099 887.289 856.817C886.28 858.576 884.864 860.068 883.16 861.168C862.229 875.968 838.504 876.381 814.397 874.253C804.36 873.301 798.358 868.918 802.264 857.611Z" fill="black"/>
<path d="M656.321 242.037C673.821 247.785 691.894 244.45 709.68 244.609C721.717 244.609 730.706 248.039 738.265 257.472C767.71 293.292 793.263 332.141 814.492 373.365C823.639 391.214 821.448 394.072 801.216 393.882C789.072 393.794 776.967 395.267 765.199 398.265C750.334 402.044 738.329 399.757 728.483 387.815C697.452 339.413 662.514 294.409 620.05 255.249C616.207 251.692 612.109 248.42 608.107 244.99C623.734 236.828 640.282 242.862 656.321 242.037Z" fill="black"/>
<path d="M789.56 1019.91C796.389 1023.75 803.916 1023.08 811.189 1022.8C823.545 1022.26 827.737 1025.97 822.115 1038.45C807.442 1070.69 787.178 1099.62 769.423 1129.99C752.749 1158.35 732.93 1173.56 697.611 1170.04C674.68 1167.75 650.827 1175.43 627.482 1168.54C672.552 1123.06 711.809 1073.26 741.823 1016.48C745.041 1013.28 748.906 1010.81 753.158 1009.24C757.409 1007.66 761.949 1007.02 766.471 1007.34C770.994 1007.67 775.394 1008.96 779.376 1011.12C783.359 1013.29 786.831 1016.28 789.56 1019.91V1019.91Z" fill="black"/>
<path d="M881.667 562.56C860.324 550.649 837.043 549.061 813.285 549.474C798.199 549.728 803.471 560.908 802.201 568.689C796.071 546.457 790.671 524.225 782.858 502.406C770.376 467.66 753.669 435.011 736.042 402.743C744.776 407.348 753.415 403.791 762.054 402.393C794.61 397.185 827.165 393.088 860.006 400.011C860.006 400.519 860.006 401.377 859.689 401.536C839.774 411.064 845.587 425.578 852.256 440.251C869.185 477.411 876.204 517.809 890.021 555.985C890.467 557.244 890.537 558.605 890.221 559.903C889.905 561.201 889.217 562.378 888.242 563.29C887.202 563.851 886.015 564.082 884.841 563.951C883.666 563.821 882.559 563.335 881.667 562.56V562.56Z" fill="#C6C6C6"/>
<path d="M789.56 1019.91C773.679 1018.92 758.402 1009.39 741.918 1016.48C769.169 966.263 790.735 913.922 802.264 857.675C802.01 867.838 809.157 867.647 816.271 867.997C838.79 869.077 860.292 863.931 881.604 857.548C890.465 861.486 887.67 868.791 886.336 875.206C879.208 908.554 869.741 941.358 858.005 973.377C857.675 974.369 857.271 975.335 856.798 976.267C848.35 991.448 848.159 1005.33 863.151 1016.79C838.853 1024.1 814.048 1018.1 789.56 1019.91Z" fill="#C6C6C6"/>
<path d="M863.119 1016.73C833.899 1015.43 833.676 1015.36 844.062 987.955C859.943 945.46 873.759 902.202 881.668 857.484C881.984 856.89 882.116 856.216 882.049 855.547C889.735 844.113 901.264 836.935 911.936 828.805C930.996 814.324 946.348 795.528 956.732 773.961C967.115 752.394 972.234 728.671 971.666 704.742C971.099 680.812 964.862 657.358 953.468 636.308C942.075 615.257 925.849 597.21 906.124 583.648C898.66 578.44 886.432 576.375 887.702 562.941C881.204 556.75 876.901 548.611 875.442 539.756C865.712 498.627 852.384 458.434 835.614 419.639C827.419 400.234 827.038 400.424 848.922 400.583C852.606 400.583 856.29 400.202 859.975 399.979C967.264 414.843 1048.1 470.106 1096.66 566.053C1184.57 739.654 1101.93 939.902 918.638 1004.34C900.724 1010.63 882.335 1015.87 863.119 1016.73Z" fill="#FEFEFE"/>
<path d="M887.606 562.941C957.894 604.229 988.988 662.318 977.332 734.223C967.994 791.741 934.772 831.631 882.048 855.547C888.987 825.817 893.113 795.501 894.371 764.999C897.836 709.874 895.708 654.541 888.019 599.846C886.209 587.364 883.827 574.946 881.667 562.528L887.606 562.941Z" fill="black"/>
</svg>
